<?xml version="1.0" standalone="no"?>
<!DOCTYPE svg PUBLIC "-//W3C//DTD SVG 20010904//EN"
 "http://www.w3.org/TR/2001/REC-SVG-20010904/DTD/svg10.dtd">
<svg version="1.0" xmlns="http://www.w3.org/2000/svg"
 width="251.000000pt" height="251.000000pt" viewBox="0 0 251.000000 251.000000"
 preserveAspectRatio="xMidYMid meet">
<metadata>
Created by potrace 1.11, written by Peter Selinger 2001-2013
</metadata>
<g transform="translate(0.000000,251.000000) scale(0.100000,-0.100000)"
fill="#000000" stroke="none">
<path d="M1247 2413 c-2 -1 -26 -5 -53 -7 -76 -7 -137 -17 -156 -27 -10 -6
-18 -7 -18 -5 0 3 -12 1 -27 -5 -16 -6 -35 -12 -43 -14 -8 -2 -33 -11 -55 -21
-22 -10 -42 -18 -45 -19 -15 -3 -116 -59 -128 -71 -7 -8 -19 -14 -27 -14 -7 0
-15 -3 -17 -7 -1 -5 -25 -26 -53 -48 -80 -63 -205 -195 -205 -215 0 -5 -4 -10
-10 -10 -5 0 -10 -7 -10 -15 0 -8 -4 -15 -9 -15 -5 0 -14 -13 -21 -30 -7 -16
-16 -30 -21 -30 -5 0 -8 -3 -7 -7 1 -5 -12 -37 -29 -73 -39 -85 -73 -184 -73
-215 0 -14 -3 -25 -8 -25 -13 0 -14 -51 -18 -660 -3 -593 -3 -595 18 -640 41
-84 129 -139 220 -135 29 1 54 4 56 5 1 1 5 3 10 4 34 6 91 49 167 127 86 87
118 109 130 88 4 -5 10 -7 15 -4 4 3 13 -2 20 -10 7 -8 20 -15 29 -15 9 0 21
-4 26 -8 21 -17 204 -66 214 -57 2 3 10 0 18 -6 15 -14 243 -17 313 -5 25 4
56 9 70 11 14 2 26 4 28 5 2 3 7 4 47 14 55 13 169 59 220 88 28 16 61 34 75
41 14 6 31 18 39 25 8 7 26 21 40 30 43 28 150 133 197 194 43 55 134 202 139
223 1 5 6 19 10 30 48 120 69 199 80 303 1 18 5 36 9 39 3 3 1 14 -5 24 -5 11
-6 19 -2 19 5 0 8 20 9 45 0 25 -2 45 -5 45 -3 0 -6 21 -7 48 -1 75 -19 178
-41 232 -3 8 -7 22 -9 30 -2 9 -10 31 -18 50 -8 19 -14 39 -14 44 0 5 -4 12
-9 15 -4 3 -24 36 -42 74 -19 37 -39 67 -43 67 -4 0 -8 5 -8 11 0 26 -159 198
-235 254 -66 49 -105 75 -114 75 -5 0 -14 7 -21 15 -7 9 -15 13 -18 11 -3 -3
-17 3 -31 13 -14 10 -28 19 -31 19 -3 0 -16 5 -30 10 -25 10 -61 24 -70 27
-25 8 -98 28 -110 30 -8 2 -15 4 -15 5 0 1 -13 4 -30 6 -16 1 -46 6 -65 9 -40
7 -188 13 -193 8z m143 -317 c125 -11 242 -54 360 -135 75 -52 165 -141 207
-207 16 -24 57 -97 58 -104 1 -3 9 -23 19 -45 9 -21 18 -46 19 -55 2 -8 5 -19
9 -25 5 -10 20 -90 24 -130 1 -11 2 -24 4 -30 2 -12 0 -77 -5 -125 -5 -47 -21
-135 -25 -135 -1 0 -4 -11 -13 -45 -18 -74 -107 -216 -182 -293 -49 -49 -148
-127 -162 -127 -5 0 -25 -11 -46 -25 -20 -14 -37 -23 -37 -19 0 3 -6 1 -13 -5
-8 -6 -17 -8 -20 -4 -4 3 -7 0 -7 -7 0 -7 -3 -11 -6 -8 -3 4 -21 0 -40 -8 -19
-8 -34 -12 -34 -9 0 4 -6 3 -12 -1 -14 -9 -22 -10 -113 -20 -71 -7 -64 -7
-143 0 -59 5 -127 19 -162 33 -8 3 -23 8 -32 9 -35 7 -168 83 -220 126 -30 23
-71 63 -93 88 -22 25 -44 50 -50 56 -5 6 -19 27 -30 47 -11 20 -23 37 -27 37
-5 0 -8 8 -8 18 0 9 -7 26 -15 36 -8 10 -12 23 -9 27 3 5 1 9 -3 9 -8 0 -29
60 -38 106 -2 10 -4 19 -5 19 -2 0 -12 67 -12 85 -1 8 -5 21 -11 28 -6 8 -6
12 2 12 7 0 8 8 1 25 -5 14 -6 25 -2 25 4 0 8 30 9 66 0 36 6 71 11 76 6 6 8
16 6 23 -10 24 69 225 88 225 5 0 7 4 4 8 -5 9 62 99 111 149 60 61 196 156
243 168 3 1 12 5 20 8 44 19 110 39 145 44 100 14 151 19 160 17 6 -2 39 -5
75 -8z"/>
<path d="M1267 1854 c-1 -1 -18 -4 -37 -7 -41 -6 -89 -16 -110 -24 -8 -4 -17
-7 -20 -7 -27 -5 -131 -78 -177 -124 -51 -51 -136 -182 -117 -182 3 0 2 -6 -3
-12 -25 -32 -51 -232 -31 -244 4 -3 6 -9 3 -14 -3 -5 0 -29 6 -52 7 -24 13
-45 14 -48 1 -3 9 -22 18 -44 9 -21 17 -42 17 -47 0 -5 5 -9 10 -9 6 0 10 -4
10 -10 0 -20 120 -150 139 -150 5 0 14 -6 18 -13 9 -13 63 -42 76 -39 4 1 7
-2 7 -7 0 -8 56 -25 73 -22 4 0 7 -3 7 -8 0 -5 14 -8 30 -7 17 1 30 0 30 -3 0
-6 128 -6 140 -1 3 1 19 3 35 5 87 9 195 66 275 145 275 272 192 719 -164 883
-22 10 -46 15 -53 13 -7 -3 -13 -2 -13 3 0 12 -171 36 -183 25z"/>
</g>
</svg>
